<svg xmlns="http://www.w3.org/2000/svg" xmlns:xlink="http://www.w3.org/1999/xlink" width="1080" zoomAndPan="magnify" viewBox="0 0 810 809.999993" height="1080" preserveAspectRatio="xMidYMid meet" version="1.0"><path fill="#ffd900" d="M 580.355469 404.65625 C 580.355469 407.523438 580.285156 410.386719 580.144531 413.25 C 580.003906 416.113281 579.792969 418.972656 579.511719 421.828125 C 579.230469 424.679688 578.882812 427.523438 578.460938 430.359375 C 578.039062 433.195312 577.550781 436.019531 576.988281 438.832031 C 576.429688 441.644531 575.804688 444.441406 575.105469 447.222656 C 574.410156 450.003906 573.644531 452.765625 572.8125 455.507812 C 571.980469 458.253906 571.082031 460.972656 570.117188 463.671875 C 569.148438 466.371094 568.117188 469.046875 567.019531 471.695312 C 565.925781 474.34375 564.761719 476.964844 563.535156 479.554688 C 562.3125 482.148438 561.023438 484.707031 559.671875 487.238281 C 558.320312 489.765625 556.90625 492.257812 555.433594 494.71875 C 553.957031 497.175781 552.425781 499.597656 550.832031 501.980469 C 549.238281 504.367188 547.589844 506.710938 545.882812 509.011719 C 544.171875 511.316406 542.410156 513.574219 540.589844 515.789062 C 538.773438 518.007812 536.902344 520.175781 534.976562 522.300781 C 533.050781 524.425781 531.074219 526.5 529.046875 528.527344 C 527.019531 530.554688 524.941406 532.53125 522.820312 534.457031 C 520.695312 536.382812 518.523438 538.253906 516.308594 540.074219 C 514.089844 541.894531 511.832031 543.65625 509.527344 545.363281 C 507.226562 547.070312 504.882812 548.722656 502.5 550.316406 C 500.117188 551.90625 497.695312 553.441406 495.234375 554.914062 C 492.777344 556.390625 490.28125 557.800781 487.753906 559.152344 C 485.226562 560.503906 482.664062 561.792969 480.074219 563.019531 C 477.480469 564.246094 474.859375 565.40625 472.210938 566.503906 C 469.5625 567.601562 466.890625 568.632812 464.191406 569.597656 C 461.492188 570.566406 458.769531 571.464844 456.027344 572.296875 C 453.28125 573.128906 450.519531 573.890625 447.738281 574.589844 C 444.957031 575.285156 442.160156 575.914062 439.347656 576.472656 C 436.535156 577.03125 433.714844 577.523438 430.878906 577.941406 C 428.042969 578.363281 425.195312 578.714844 422.34375 578.996094 C 419.488281 579.277344 416.632812 579.488281 413.769531 579.628906 C 410.90625 579.769531 408.039062 579.839844 405.171875 579.839844 C 402.304688 579.839844 399.441406 579.769531 396.578125 579.628906 C 393.710938 579.488281 390.855469 579.277344 388 578.996094 C 385.148438 578.714844 382.304688 578.363281 379.46875 577.941406 C 376.632812 577.523438 373.808594 577.03125 370.996094 576.472656 C 368.183594 575.914062 365.386719 575.285156 362.605469 574.589844 C 359.824219 573.890625 357.0625 573.128906 354.320312 572.296875 C 351.574219 571.464844 348.855469 570.566406 346.15625 569.597656 C 343.457031 568.632812 340.78125 567.601562 338.132812 566.503906 C 335.484375 565.40625 332.863281 564.246094 330.269531 563.019531 C 327.679688 561.792969 325.121094 560.503906 322.589844 559.152344 C 320.0625 557.800781 317.570312 556.390625 315.109375 554.914062 C 312.652344 553.441406 310.230469 551.90625 307.84375 550.316406 C 305.460938 548.722656 303.117188 547.070312 300.816406 545.363281 C 298.511719 543.65625 296.253906 541.894531 294.035156 540.074219 C 291.820312 538.253906 289.648438 536.382812 287.527344 534.457031 C 285.402344 532.53125 283.324219 530.554688 281.296875 528.527344 C 279.269531 526.5 277.292969 524.425781 275.371094 522.300781 C 273.445312 520.175781 271.570312 518.007812 269.753906 515.789062 C 267.933594 513.574219 266.171875 511.316406 264.464844 509.011719 C 262.753906 506.710938 261.105469 504.367188 259.511719 501.980469 C 257.917969 499.597656 256.386719 497.175781 254.910156 494.71875 C 253.4375 492.257812 252.023438 489.765625 250.671875 487.238281 C 249.320312 484.707031 248.035156 482.148438 246.808594 479.554688 C 245.582031 476.964844 244.421875 474.34375 243.324219 471.695312 C 242.226562 469.046875 241.195312 466.371094 240.230469 463.671875 C 239.261719 460.972656 238.363281 458.253906 237.53125 455.507812 C 236.699219 452.765625 235.933594 450.003906 235.238281 447.222656 C 234.542969 444.441406 233.914062 441.644531 233.355469 438.832031 C 232.796875 436.019531 232.304688 433.195312 231.882812 430.359375 C 231.464844 427.523438 231.113281 424.679688 230.832031 421.828125 C 230.550781 418.972656 230.339844 416.113281 230.199219 413.25 C 230.058594 410.386719 229.988281 407.523438 229.988281 404.65625 C 229.988281 401.789062 230.058594 398.921875 230.199219 396.058594 C 230.339844 393.195312 230.550781 390.335938 230.832031 387.484375 C 231.113281 384.632812 231.464844 381.785156 231.882812 378.949219 C 232.304688 376.113281 232.796875 373.289062 233.355469 370.480469 C 233.914062 367.667969 234.542969 364.871094 235.238281 362.089844 C 235.933594 359.308594 236.699219 356.546875 237.53125 353.800781 C 238.363281 351.058594 239.261719 348.335938 240.230469 345.636719 C 241.195312 342.9375 242.226562 340.265625 243.324219 337.613281 C 244.421875 334.964844 245.582031 332.347656 246.808594 329.753906 C 248.035156 327.164062 249.324219 324.601562 250.671875 322.074219 C 252.023438 319.546875 253.4375 317.050781 254.910156 314.59375 C 256.386719 312.132812 257.917969 309.710938 259.511719 307.328125 C 261.105469 304.945312 262.753906 302.601562 264.464844 300.296875 C 266.171875 297.996094 267.933594 295.734375 269.753906 293.519531 C 271.570312 291.304688 273.445312 289.132812 275.371094 287.007812 C 277.292969 284.882812 279.269531 282.808594 281.296875 280.78125 C 283.324219 278.753906 285.402344 276.777344 287.527344 274.851562 C 289.648438 272.925781 291.820312 271.054688 294.035156 269.234375 C 296.253906 267.417969 298.511719 265.652344 300.816406 263.945312 C 303.117188 262.238281 305.460938 260.589844 307.84375 258.996094 C 310.230469 257.402344 312.652344 255.867188 315.109375 254.394531 C 317.570312 252.921875 320.0625 251.507812 322.589844 250.15625 C 325.121094 248.804688 327.679688 247.515625 330.269531 246.289062 C 332.863281 245.066406 335.484375 243.902344 338.132812 242.804688 C 340.78125 241.710938 343.457031 240.675781 346.15625 239.710938 C 348.855469 238.746094 351.574219 237.847656 354.320312 237.015625 C 357.0625 236.183594 359.824219 235.417969 362.605469 234.722656 C 365.386719 234.023438 368.183594 233.398438 370.996094 232.835938 C 373.808594 232.277344 376.632812 231.789062 379.46875 231.367188 C 382.304688 230.945312 385.148438 230.597656 388 230.316406 C 390.855469 230.035156 393.710938 229.824219 396.578125 229.683594 C 399.441406 229.542969 402.304688 229.472656 405.171875 229.472656 C 408.039062 229.472656 410.90625 229.542969 413.769531 229.683594 C 416.632812 229.824219 419.488281 230.035156 422.34375 230.316406 C 425.195312 230.597656 428.042969 230.945312 430.878906 231.367188 C 433.714844 231.789062 436.535156 232.277344 439.347656 232.835938 C 442.160156 233.398438 444.957031 234.023438 447.738281 234.722656 C 450.519531 235.417969 453.28125 236.183594 456.027344 237.015625 C 458.769531 237.847656 461.492188 238.746094 464.191406 239.710938 C 466.890625 240.675781 469.5625 241.710938 472.210938 242.804688 C 474.859375 243.902344 477.480469 245.066406 480.074219 246.289062 C 482.664062 247.515625 485.226562 248.804688 487.753906 250.15625 C 490.28125 251.507812 492.777344 252.921875 495.234375 254.394531 C 497.695312 255.867188 500.117188 257.402344 502.5 258.996094 C 504.882812 260.589844 507.226562 262.238281 509.527344 263.945312 C 511.832031 265.652344 514.089844 267.417969 516.308594 269.234375 C 518.523438 271.054688 520.695312 272.925781 522.820312 274.851562 C 524.941406 276.777344 527.019531 278.753906 529.046875 280.78125 C 531.074219 282.808594 533.050781 284.882812 534.976562 287.007812 C 536.902344 289.132812 538.773438 291.304688 540.589844 293.519531 C 542.410156 295.734375 544.171875 297.996094 545.882812 300.296875 C 547.589844 302.601562 549.238281 304.945312 550.832031 307.328125 C 552.425781 309.710938 553.957031 312.132812 555.433594 314.59375 C 556.90625 317.050781 558.320312 319.546875 559.671875 322.074219 C 561.023438 324.601562 562.3125 327.164062 563.535156 329.753906 C 564.761719 332.347656 565.925781 334.964844 567.019531 337.613281 C 568.117188 340.265625 569.148438 342.9375 570.117188 345.636719 C 571.082031 348.335938 571.980469 351.058594 572.8125 353.800781 C 573.644531 356.546875 574.410156 359.308594 575.105469 362.089844 C 575.804688 364.871094 576.429688 367.667969 576.988281 370.480469 C 577.550781 373.289062 578.039062 376.113281 578.460938 378.949219 C 578.882812 381.785156 579.230469 384.632812 579.511719 387.484375 C 579.792969 390.335938 580.003906 393.195312 580.144531 396.058594 C 580.285156 398.921875 580.355469 401.789062 580.355469 404.65625 Z M 580.355469 404.65625 " fill-opacity="1" fill-rule="nonzero"/><path fill="#ffd900" d="M 405.171875 151.488281 C 395.695312 151.488281 387.9375 143.730469 387.9375 134.253906 L 387.9375 16.890625 C 387.9375 7.410156 395.695312 -0.34375 405.171875 -0.34375 C 414.652344 -0.34375 422.40625 7.410156 422.40625 16.890625 L 422.40625 134.253906 C 422.40625 143.816406 414.652344 151.488281 405.171875 151.488281 Z M 405.171875 151.488281 " fill-opacity="1" fill-rule="nonzero"/><path fill="#ffd900" d="M 596.382812 230.675781 C 591.988281 230.675781 587.59375 228.953125 584.234375 225.59375 C 577.511719 218.871094 577.511719 207.929688 584.234375 201.207031 L 667.214844 118.226562 C 673.9375 111.503906 684.878906 111.503906 691.601562 118.226562 C 698.324219 124.945312 698.324219 135.890625 691.601562 142.613281 L 608.621094 225.59375 C 605.171875 229.039062 600.777344 230.675781 596.382812 230.675781 Z M 596.382812 230.675781 " fill-opacity="1" fill-rule="nonzero"/><path fill="#ffd900" d="M 792.9375 421.890625 L 675.574219 421.890625 C 666.097656 421.890625 658.339844 414.132812 658.339844 404.65625 C 658.339844 395.175781 666.097656 387.421875 675.574219 387.421875 L 792.9375 387.421875 C 802.417969 387.421875 810.171875 395.175781 810.171875 404.65625 C 810.171875 414.132812 802.417969 421.890625 792.9375 421.890625 Z M 792.9375 421.890625 " fill-opacity="1" fill-rule="nonzero"/><path fill="#ffd900" d="M 679.367188 696.082031 C 674.972656 696.082031 670.578125 694.359375 667.214844 691 L 584.234375 608.015625 C 577.511719 601.296875 577.511719 590.351562 584.234375 583.632812 C 590.957031 576.910156 601.898438 576.910156 608.621094 583.632812 L 691.601562 666.613281 C 698.324219 673.335938 698.324219 684.277344 691.601562 691 C 688.15625 694.445312 683.761719 696.082031 679.367188 696.082031 Z M 679.367188 696.082031 " fill-opacity="1" fill-rule="nonzero"/><path fill="#ffd900" d="M 405.171875 809.65625 C 395.695312 809.65625 387.9375 801.898438 387.9375 792.421875 L 387.9375 675.144531 C 387.9375 665.664062 395.695312 657.910156 405.171875 657.910156 C 414.652344 657.910156 422.40625 665.664062 422.40625 675.144531 L 422.40625 792.507812 C 422.40625 801.984375 414.652344 809.65625 405.171875 809.65625 Z M 405.171875 809.65625 " fill-opacity="1" fill-rule="nonzero"/><path fill="#ffd900" d="M 130.980469 696.082031 C 126.585938 696.082031 122.1875 694.359375 118.828125 691 C 112.109375 684.277344 112.109375 673.335938 118.828125 666.613281 L 201.8125 583.632812 C 208.53125 576.910156 219.476562 576.910156 226.195312 583.632812 C 232.917969 590.351562 232.917969 601.296875 226.195312 608.015625 L 143.128906 691.085938 C 139.769531 694.445312 135.375 696.082031 130.980469 696.082031 Z M 130.980469 696.082031 " fill-opacity="1" fill-rule="nonzero"/><path fill="#ffd900" d="M 134.683594 421.890625 L 17.40625 421.890625 C 7.925781 421.890625 0.171875 414.132812 0.171875 404.65625 C 0.171875 395.175781 7.925781 387.421875 17.40625 387.421875 L 134.769531 387.421875 C 144.25 387.421875 152.003906 395.175781 152.003906 404.65625 C 152.003906 414.132812 144.25 421.890625 134.683594 421.890625 Z M 134.683594 421.890625 " fill-opacity="1" fill-rule="nonzero"/><path fill="#ffd900" d="M 213.960938 230.675781 C 209.566406 230.675781 205.171875 228.953125 201.8125 225.59375 L 118.828125 142.613281 C 112.109375 135.890625 112.109375 124.945312 118.828125 118.226562 C 125.550781 111.503906 136.492188 111.503906 143.214844 118.226562 L 226.195312 201.207031 C 232.917969 207.929688 232.917969 218.871094 226.195312 225.59375 C 222.75 229.039062 218.355469 230.675781 213.960938 230.675781 Z M 213.960938 230.675781 " fill-opacity="1" fill-rule="nonzero"/></svg>