<svg xmlns="http://www.w3.org/2000/svg" xmlns:xlink="http://www.w3.org/1999/xlink" width="1080" zoomAndPan="magnify" viewBox="0 0 810 809.999993" height="1080" preserveAspectRatio="xMidYMid meet" version="1.0"><defs><clipPath id="22f22c7e4c"><path d="M 413 53.15625 L 808 53.15625 L 808 457 L 413 457 Z M 413 53.15625 " clip-rule="nonzero"/></clipPath><clipPath id="ab959cdea1"><path d="M 158 398 L 553 398 L 553 756.65625 L 158 756.65625 Z M 158 398 " clip-rule="nonzero"/></clipPath></defs><g clip-path="url(#22f22c7e4c)"><path fill="#ffd900" d="M 518.605469 150.804688 C 508.976562 150.804688 501.101562 142.929688 501.101562 133.304688 L 501.101562 70.570312 C 501.101562 60.945312 508.976562 53.070312 518.605469 53.070312 C 528.234375 53.070312 536.109375 60.945312 536.109375 70.570312 L 536.109375 133.304688 C 536.109375 142.929688 528.234375 150.804688 518.605469 150.804688 Z M 678.683594 206.804688 L 723.058594 162.445312 C 729.886719 155.617188 729.886719 144.507812 723.058594 137.679688 C 716.234375 130.855469 705.117188 130.855469 698.289062 137.679688 L 653.917969 182.042969 C 647.089844 188.867188 647.089844 199.980469 653.917969 206.804688 C 657.328125 210.21875 661.792969 211.96875 666.257812 211.96875 C 670.722656 211.96875 675.273438 210.21875 678.683594 206.804688 Z M 807.78125 342.082031 C 807.78125 332.457031 799.90625 324.582031 790.277344 324.582031 L 727.523438 324.582031 C 717.894531 324.582031 710.019531 332.457031 710.019531 342.082031 C 710.019531 351.707031 717.894531 359.582031 727.523438 359.582031 L 790.277344 359.582031 C 799.90625 359.582031 807.78125 351.707031 807.78125 342.082031 Z M 518.605469 203.042969 C 479.394531 203.042969 444.035156 219.230469 418.742188 245.304688 L 413.753906 336.042969 L 494.011719 444.894531 L 596.9375 456.882812 C 633.523438 431.855469 657.59375 389.769531 657.59375 342.082031 C 657.679688 265.257812 595.363281 203.042969 518.605469 203.042969 Z M 518.605469 203.042969 " fill-opacity="1" fill-rule="nonzero"/></g><path fill="#a6a6a6" d="M 614.707031 669.332031 C 663.019531 669.332031 702.230469 630.132812 702.230469 581.917969 C 702.230469 533.617188 663.019531 494.417969 614.707031 494.417969 L 597.640625 494.417969 C 598.601562 488.992188 599.214844 483.480469 599.214844 477.707031 C 599.214844 428.96875 562.804688 388.804688 515.71875 382.59375 C 504.25 294.132812 428.542969 225.707031 336.90625 225.707031 C 237.21875 225.707031 156.433594 306.46875 156.433594 406.132812 L 156.433594 458.019531 L 108.121094 458.019531 C 49.832031 458.019531 2.480469 505.355469 2.480469 563.632812 C 2.480469 621.992188 49.832031 669.242188 108.121094 669.242188 L 614.707031 669.242188 Z M 614.707031 669.332031 " fill-opacity="1" fill-rule="nonzero"/><g clip-path="url(#ab959cdea1)"><path fill="#eeeeee" d="M 552.039062 669.332031 C 552.039062 678.957031 544.160156 686.832031 534.535156 686.832031 L 507.402344 686.832031 L 526.570312 705.992188 C 533.398438 712.820312 533.398438 723.929688 526.570312 730.757812 C 523.15625 734.167969 518.691406 735.917969 514.230469 735.917969 C 509.765625 735.917969 505.300781 734.167969 501.886719 730.757812 L 482.71875 711.59375 L 482.71875 738.71875 C 482.71875 748.34375 474.84375 756.21875 465.214844 756.21875 C 455.589844 756.21875 447.710938 748.34375 447.710938 738.71875 L 447.710938 711.59375 L 428.542969 730.757812 C 425.128906 734.167969 420.667969 735.917969 416.203125 735.917969 C 411.738281 735.917969 407.277344 734.167969 403.863281 730.757812 C 397.035156 723.929688 397.035156 712.820312 403.863281 705.992188 L 423.03125 686.832031 L 395.898438 686.832031 C 386.269531 686.832031 378.394531 678.957031 378.394531 669.332031 C 378.394531 659.707031 386.269531 651.832031 395.898438 651.832031 L 423.03125 651.832031 L 403.863281 632.667969 C 397.035156 625.84375 397.035156 614.730469 403.863281 607.90625 C 410.6875 601.082031 421.804688 601.082031 428.632812 607.90625 L 447.800781 627.070312 L 447.800781 599.945312 C 447.800781 590.320312 455.675781 582.445312 465.304688 582.445312 C 474.929688 582.445312 482.808594 590.320312 482.808594 599.945312 L 482.808594 627.070312 L 501.886719 607.90625 C 508.714844 601.082031 519.832031 601.082031 526.65625 607.90625 C 533.484375 614.730469 533.484375 625.84375 526.65625 632.667969 L 507.488281 651.832031 L 534.621094 651.832031 C 544.25 651.832031 552.039062 659.707031 552.039062 669.332031 Z M 315.113281 651.832031 L 287.980469 651.832031 L 307.148438 632.667969 C 313.976562 625.84375 313.976562 614.730469 307.148438 607.90625 C 300.320312 601.082031 289.207031 601.082031 282.378906 607.90625 L 263.210938 627.070312 L 263.210938 599.945312 C 263.210938 590.320312 255.335938 582.445312 245.707031 582.445312 C 236.078125 582.445312 228.203125 590.320312 228.203125 599.945312 L 228.203125 627.070312 L 209.121094 607.90625 C 202.296875 601.082031 191.179688 601.082031 184.355469 607.90625 C 177.527344 614.730469 177.527344 625.84375 184.355469 632.667969 L 203.519531 651.832031 L 176.390625 651.832031 C 166.761719 651.832031 158.882812 659.707031 158.882812 669.332031 C 158.882812 678.957031 166.761719 686.832031 176.390625 686.832031 L 203.519531 686.832031 L 184.355469 705.992188 C 177.527344 712.820312 177.527344 723.929688 184.355469 730.757812 C 187.765625 734.167969 192.230469 735.917969 196.695312 735.917969 C 201.15625 735.917969 205.621094 734.167969 209.035156 730.757812 L 228.203125 711.59375 L 228.203125 738.71875 C 228.203125 748.34375 236.078125 756.21875 245.707031 756.21875 C 255.335938 756.21875 263.210938 748.34375 263.210938 738.71875 L 263.210938 711.59375 L 282.378906 730.757812 C 285.792969 734.167969 290.257812 735.917969 294.71875 735.917969 C 299.183594 735.917969 303.648438 734.167969 307.0625 730.757812 C 313.886719 723.929688 313.886719 712.820312 307.0625 705.992188 L 287.894531 686.832031 L 315.027344 686.832031 C 324.652344 686.832031 332.53125 678.957031 332.53125 669.332031 C 332.53125 659.707031 324.828125 651.832031 315.113281 651.832031 Z M 421.71875 468.257812 L 394.585938 468.257812 L 413.753906 449.09375 C 420.578125 442.269531 420.578125 431.15625 413.753906 424.332031 C 406.925781 417.507812 395.808594 417.507812 388.984375 424.332031 L 369.816406 443.492188 L 369.816406 416.367188 C 369.816406 406.742188 361.9375 398.867188 352.3125 398.867188 C 342.683594 398.867188 334.804688 406.742188 334.804688 416.367188 L 334.804688 443.492188 L 315.640625 424.332031 C 308.8125 417.507812 297.695312 417.507812 290.871094 424.332031 C 284.042969 431.15625 284.042969 442.269531 290.871094 449.09375 L 310.039062 468.257812 L 282.90625 468.257812 C 273.277344 468.257812 265.398438 476.132812 265.398438 485.757812 C 265.398438 495.382812 273.277344 503.257812 282.90625 503.257812 L 310.039062 503.257812 L 290.871094 522.417969 C 284.042969 529.242188 284.042969 540.355469 290.871094 547.179688 C 294.28125 550.59375 298.746094 552.34375 303.210938 552.34375 C 307.675781 552.34375 312.136719 550.59375 315.550781 547.179688 L 334.71875 528.019531 L 334.71875 555.144531 C 334.71875 564.769531 342.597656 572.644531 352.222656 572.644531 C 361.851562 572.644531 369.726562 564.769531 369.726562 555.144531 L 369.726562 528.019531 L 388.894531 547.179688 C 392.308594 550.59375 396.773438 552.34375 401.238281 552.34375 C 405.699219 552.34375 410.164062 550.59375 413.578125 547.179688 C 420.402344 540.355469 420.402344 529.242188 413.578125 522.417969 L 394.410156 503.257812 L 421.542969 503.257812 C 431.167969 503.257812 439.046875 495.382812 439.046875 485.757812 C 439.046875 476.132812 431.433594 468.257812 421.71875 468.257812 Z M 421.71875 468.257812 " fill-opacity="1" fill-rule="nonzero"/></g></svg>