<svg xmlns="http://www.w3.org/2000/svg" xmlns:xlink="http://www.w3.org/1999/xlink" width="1080" zoomAndPan="magnify" viewBox="0 0 810 809.999993" height="1080" preserveAspectRatio="xMidYMid meet" version="1.0"><defs><clipPath id="46874fd7b9"><path d="M 22.273438 1 L 788 1 L 788 487 L 22.273438 487 Z M 22.273438 1 " clip-rule="nonzero"/></clipPath></defs><g clip-path="url(#46874fd7b9)"><path fill="#a6a6a6" d="M 137.53125 486.894531 C 73.675781 486.894531 21.835938 435.160156 21.835938 371.242188 C 21.835938 307.414062 73.675781 255.59375 137.53125 255.59375 L 190.425781 255.59375 L 190.425781 198.777344 C 190.425781 89.703125 278.839844 1.320312 387.957031 1.320312 C 488.304688 1.320312 571.105469 76.113281 583.738281 173 C 635.3125 179.75 675.136719 223.765625 675.136719 277.164062 C 675.136719 283.476562 674.433594 289.527344 673.382812 295.488281 L 692.066406 295.488281 C 744.957031 295.488281 787.847656 338.363281 787.847656 391.234375 C 787.847656 444.015625 744.957031 486.894531 692.066406 486.894531 Z M 137.53125 486.894531 " fill-opacity="1" fill-rule="nonzero"/></g><path fill="#84daf2" d="M 191.828125 547.566406 C 187.355469 547.566406 182.878906 545.8125 179.460938 542.394531 C 172.617188 535.554688 172.617188 524.421875 179.460938 517.582031 L 240.949219 456.117188 C 247.789062 449.277344 258.929688 449.277344 265.769531 456.117188 C 272.613281 462.957031 272.613281 474.089844 265.769531 480.929688 L 204.28125 542.394531 C 200.773438 545.902344 196.300781 547.566406 191.828125 547.566406 Z M 325.152344 542.480469 L 386.640625 481.019531 C 393.484375 474.179688 393.484375 463.042969 386.640625 456.203125 C 379.800781 449.367188 368.660156 449.367188 361.820312 456.203125 L 300.332031 517.667969 C 293.488281 524.507812 293.488281 535.644531 300.332031 542.480469 C 303.75 545.902344 308.226562 547.65625 312.699219 547.65625 C 317.171875 547.65625 321.734375 545.902344 325.152344 542.480469 Z M 446.113281 542.480469 L 507.601562 481.019531 C 514.441406 474.179688 514.441406 463.042969 507.601562 456.203125 C 500.757812 449.367188 489.621094 449.367188 482.777344 456.203125 L 421.289062 517.667969 C 414.449219 524.507812 414.449219 535.644531 421.289062 542.480469 C 424.710938 545.902344 429.183594 547.65625 433.65625 547.65625 C 438.128906 547.65625 442.691406 545.902344 446.113281 542.480469 Z M 567.070312 542.480469 L 628.558594 481.019531 C 635.402344 474.179688 635.402344 463.042969 628.558594 456.203125 C 621.71875 449.367188 610.578125 449.367188 603.734375 456.203125 L 542.25 517.667969 C 535.40625 524.507812 535.40625 535.644531 542.25 542.480469 C 545.667969 545.902344 550.140625 547.65625 554.617188 547.65625 C 559.089844 547.65625 563.652344 545.902344 567.070312 542.480469 Z M 204.195312 672.6875 L 265.683594 611.222656 C 272.523438 604.382812 272.523438 593.25 265.683594 586.410156 C 258.839844 579.570312 247.703125 579.570312 240.859375 586.410156 L 179.371094 647.875 C 172.53125 654.710938 172.53125 665.847656 179.371094 672.6875 C 182.792969 676.105469 187.265625 677.859375 191.738281 677.859375 C 196.214844 677.859375 200.773438 676.105469 204.195312 672.6875 Z M 325.152344 672.6875 L 386.640625 611.222656 C 393.484375 604.382812 393.484375 593.25 386.640625 586.410156 C 379.800781 579.570312 368.660156 579.570312 361.820312 586.410156 L 300.332031 647.875 C 293.488281 654.710938 293.488281 665.847656 300.332031 672.6875 C 303.75 676.105469 308.226562 677.859375 312.699219 677.859375 C 317.171875 677.859375 321.734375 676.105469 325.152344 672.6875 Z M 446.113281 672.6875 L 507.601562 611.222656 C 514.441406 604.382812 514.441406 593.25 507.601562 586.410156 C 500.757812 579.570312 489.621094 579.570312 482.777344 586.410156 L 421.289062 647.875 C 414.449219 654.710938 414.449219 665.847656 421.289062 672.6875 C 424.710938 676.105469 429.183594 677.859375 433.65625 677.859375 C 438.128906 677.859375 442.691406 676.105469 446.113281 672.6875 Z M 567.070312 672.6875 L 628.558594 611.222656 C 635.402344 604.382812 635.402344 593.25 628.558594 586.410156 C 621.71875 579.570312 610.578125 579.570312 603.734375 586.410156 L 542.25 647.875 C 535.40625 654.710938 535.40625 665.847656 542.25 672.6875 C 545.667969 676.105469 550.140625 677.859375 554.617188 677.859375 C 559.089844 677.859375 563.652344 676.105469 567.070312 672.6875 Z M 204.195312 802.890625 L 265.683594 741.425781 C 272.523438 734.589844 272.523438 723.453125 265.683594 716.613281 C 258.839844 709.773438 247.703125 709.773438 240.859375 716.613281 L 179.371094 778.078125 C 172.53125 784.917969 172.53125 796.050781 179.371094 802.890625 C 182.792969 806.3125 187.265625 808.0625 191.738281 808.0625 C 196.214844 808.0625 200.773438 806.3125 204.195312 802.890625 Z M 325.152344 802.890625 L 386.640625 741.425781 C 393.484375 734.589844 393.484375 723.453125 386.640625 716.613281 C 379.800781 709.773438 368.660156 709.773438 361.820312 716.613281 L 300.332031 778.078125 C 293.488281 784.917969 293.488281 796.050781 300.332031 802.890625 C 303.75 806.3125 308.226562 808.0625 312.699219 808.0625 C 317.171875 808.0625 321.734375 806.3125 325.152344 802.890625 Z M 446.113281 802.890625 L 507.601562 741.425781 C 514.441406 734.589844 514.441406 723.453125 507.601562 716.613281 C 500.757812 709.773438 489.621094 709.773438 482.777344 716.613281 L 421.289062 778.078125 C 414.449219 784.917969 414.449219 796.050781 421.289062 802.890625 C 424.710938 806.3125 429.183594 808.0625 433.65625 808.0625 C 438.128906 808.0625 442.691406 806.3125 446.113281 802.890625 Z M 567.070312 802.890625 L 628.558594 741.425781 C 635.402344 734.589844 635.402344 723.453125 628.558594 716.613281 C 621.71875 709.773438 610.578125 709.773438 603.734375 716.613281 L 542.25 778.078125 C 535.40625 784.917969 535.40625 796.050781 542.25 802.890625 C 545.667969 806.3125 550.140625 808.0625 554.617188 808.0625 C 559.089844 808.0625 563.652344 806.3125 567.070312 802.890625 Z M 567.070312 802.890625 " fill-opacity="1" fill-rule="nonzero"/></svg>