<svg xmlns="http://www.w3.org/2000/svg" xmlns:xlink="http://www.w3.org/1999/xlink" width="1080" zoomAndPan="magnify" viewBox="0 0 810 809.999993" height="1080" preserveAspectRatio="xMidYMid meet" version="1.0"><path fill="#ffd900" d="M 758.9375 249.742188 C 670.65625 226.097656 618.152344 135.390625 641.796875 47.019531 C 646.382812 30.027344 653.394531 14.292969 662.472656 0.269531 C 594.328125 3.507812 533.109375 48.996094 512.25 117.140625 C 511.710938 119.027344 511.082031 121.003906 510.632812 122.894531 C 509.105469 128.738281 507.847656 134.671875 506.945312 140.515625 C 505.058594 263.226562 557.832031 326.335938 663.914062 331.191406 C 677.039062 331.730469 690.074219 330.652344 702.660156 328.136719 C 746.351562 319.414062 785.277344 293.253906 809.640625 255.316406 C 793.007812 256.035156 775.929688 254.328125 758.9375 249.742188 Z M 758.9375 249.742188 " fill-opacity="1" fill-rule="nonzero"/><path fill="#84daf2" d="M 678.386719 388.367188 L 659.507812 388.367188 C 660.585938 382.433594 661.304688 376.230469 661.304688 369.847656 C 661.304688 315.820312 621.03125 271.320312 568.886719 264.484375 C 556.121094 166.496094 472.425781 90.800781 370.929688 90.800781 C 260.621094 90.800781 171.167969 180.25 171.167969 290.558594 L 171.167969 348.09375 L 117.679688 348.09375 C 53.132812 348.09375 0.71875 400.503906 0.71875 465.054688 C 0.71875 529.691406 53.132812 582.011719 117.679688 582.011719 L 678.476562 582.011719 C 731.964844 582.011719 775.386719 538.679688 775.386719 485.191406 C 775.296875 431.789062 731.875 388.367188 678.386719 388.367188 Z M 678.386719 388.367188 " fill-opacity="1" fill-rule="nonzero"/><path fill="#35c6f0" d="M 525.375 548.480469 L 226.726562 548.480469 C 216.839844 548.480469 208.75 540.390625 208.75 530.5 C 208.75 520.613281 216.839844 512.519531 226.726562 512.519531 L 525.464844 512.519531 C 556.480469 512.519531 581.742188 487.257812 581.742188 456.242188 C 581.742188 425.226562 556.480469 399.964844 525.464844 399.964844 C 515.578125 399.964844 507.484375 391.875 507.484375 381.984375 C 507.484375 372.097656 515.578125 364.003906 525.464844 364.003906 C 576.347656 364.003906 617.703125 405.359375 617.703125 456.242188 C 617.613281 507.035156 576.257812 548.480469 525.375 548.480469 Z M 670.566406 717.761719 C 670.566406 666.878906 629.210938 625.523438 578.328125 625.523438 L 226.726562 625.523438 C 216.839844 625.523438 208.75 633.617188 208.75 643.503906 C 208.75 653.394531 216.839844 661.484375 226.726562 661.484375 L 578.328125 661.484375 C 609.34375 661.484375 634.605469 686.746094 634.605469 717.761719 C 634.605469 748.777344 609.34375 774.039062 578.328125 774.039062 C 568.4375 774.039062 560.347656 782.132812 560.347656 792.019531 C 560.347656 801.910156 568.4375 810 578.328125 810 C 629.210938 810 670.566406 768.554688 670.566406 717.761719 Z M 554.863281 586.957031 C 554.863281 577.070312 546.773438 568.976562 536.882812 568.976562 L 188.160156 568.976562 C 178.273438 568.976562 170.179688 577.070312 170.179688 586.957031 C 170.179688 596.847656 178.273438 604.9375 188.160156 604.9375 L 536.882812 604.9375 C 546.863281 604.9375 554.863281 596.847656 554.863281 586.957031 Z M 554.863281 586.957031 " fill-opacity="1" fill-rule="nonzero"/></svg>