<svg xmlns="http://www.w3.org/2000/svg" xmlns:xlink="http://www.w3.org/1999/xlink" width="1080" zoomAndPan="magnify" viewBox="0 0 810 809.999993" height="1080" preserveAspectRatio="xMidYMid meet" version="1.0"><path fill="#84daf2" d="M 752.21875 588.171875 C 752.21875 629.824219 718.378906 663.652344 676.800781 663.652344 L 239.671875 663.652344 C 199.980469 663.652344 166.320312 638.28125 153.71875 602.925781 C 150.300781 593.386719 148.5 583.222656 148.5 572.515625 C 148.5 522.042969 189.359375 481.199219 239.761719 481.199219 L 281.429688 481.199219 L 281.429688 436.394531 C 281.429688 358.484375 338.671875 293.976562 413.460938 282.550781 C 421.199219 281.378906 429.03125 280.75 437.128906 280.75 C 457.648438 280.75 477.449219 284.800781 495.359375 291.996094 C 546.390625 312.597656 584.101562 359.5625 591.480469 416.0625 C 629.191406 421.011719 658.890625 451.328125 663.03125 489.207031 C 663.390625 492.175781 663.570312 495.144531 663.570312 498.113281 C 663.570312 503.0625 663.03125 507.917969 662.21875 512.597656 L 676.890625 512.597656 C 718.378906 512.6875 752.21875 546.515625 752.21875 588.171875 Z M 752.21875 588.171875 " fill-opacity="1" fill-rule="nonzero"/><path fill="#35c6f0" d="M 413.371094 282.550781 C 338.578125 293.976562 281.339844 358.484375 281.339844 436.394531 L 281.339844 481.199219 L 239.671875 481.199219 C 189.269531 481.199219 148.410156 522.042969 148.410156 572.425781 C 148.410156 583.132812 150.300781 593.386719 153.71875 602.925781 L 91.351562 602.925781 C 41.039062 602.925781 0.179688 562.078125 0.179688 511.699219 C 0.179688 461.40625 41.039062 420.5625 91.351562 420.5625 L 133.109375 420.5625 L 133.109375 375.757812 C 133.109375 289.746094 202.859375 220.113281 288.808594 220.113281 C 339.75 220.113281 385.019531 244.675781 413.371094 282.550781 Z M 413.371094 282.550781 " fill-opacity="1" fill-rule="nonzero"/><path fill="#ffd900" d="M 810.179688 410.394531 C 778.320312 460.054688 722.429688 490.285156 662.941406 489.296875 C 658.890625 451.328125 629.101562 421.011719 591.390625 416.152344 C 584.011719 359.652344 546.390625 312.78125 495.269531 292.085938 C 496.171875 285.699219 497.519531 279.3125 499.230469 272.832031 C 519.121094 198.699219 584.371094 148.949219 657.179688 145.441406 C 647.730469 160.015625 640.351562 176.296875 635.671875 193.933594 C 611.101562 285.699219 665.550781 380.074219 757.441406 404.636719 C 775.078125 409.40625 792.808594 411.203125 810.179688 410.394531 Z M 810.179688 410.394531 " fill-opacity="1" fill-rule="nonzero"/></svg>