<svg xmlns="http://www.w3.org/2000/svg" xmlns:xlink="http://www.w3.org/1999/xlink" width="1080" zoomAndPan="magnify" viewBox="0 0 810 809.999993" height="1080" preserveAspectRatio="xMidYMid meet" version="1.0"><path fill="#ffd900" d="M 459.566406 209.125 C 459.863281 207.929688 460.164062 206.730469 460.464844 205.636719 C 482.808594 122.171875 556.226562 66.132812 638.125 62.242188 C 627.550781 78.695312 619.269531 96.945312 613.984375 116.886719 C 586.351562 220.195312 647.699219 326.292969 750.945312 353.914062 C 770.898438 359.199219 790.847656 361.292969 810.300781 360.296875 C 777.28125 411.648438 721.519531 444.554688 660.769531 448.742188 L 444.902344 323.800781 Z M 459.566406 209.125 " fill-opacity="1" fill-rule="nonzero"/><path fill="#a6a6a6" d="M 157.511719 681.082031 L 117.511719 681.082031 C 52.769531 681.082031 0.199219 628.632812 0.199219 563.816406 C 0.199219 499.101562 52.769531 446.550781 117.511719 446.550781 L 171.175781 446.550781 L 171.175781 388.914062 C 171.175781 278.328125 260.855469 188.683594 371.484375 188.683594 C 473.230469 188.683594 557.222656 264.566406 569.992188 362.789062 C 616.875 368.972656 654.183594 405.367188 661.367188 451.835938 C 662.164062 457.21875 662.664062 462.703125 662.664062 468.386719 C 662.664062 474.769531 661.964844 480.953125 660.867188 486.933594 L 679.820312 486.933594 C 733.488281 486.933594 776.980469 530.410156 776.980469 584.058594 C 776.980469 637.605469 733.488281 681.082031 679.820312 681.082031 Z M 157.511719 681.082031 " fill-opacity="1" fill-rule="nonzero"/><path fill="#84daf2" d="M 217.664062 747.394531 C 212.574219 747.394531 207.488281 745.398438 203.597656 741.511719 C 195.816406 733.734375 195.816406 721.070312 203.597656 713.292969 L 296.269531 620.65625 C 304.050781 612.878906 316.71875 612.878906 324.5 620.65625 C 332.28125 628.433594 332.28125 641.097656 324.5 648.875 L 231.828125 741.511719 C 227.9375 745.398438 222.75 747.394531 217.664062 747.394531 Z M 350.035156 741.511719 L 442.707031 648.875 C 450.488281 641.097656 450.488281 628.433594 442.707031 620.65625 C 434.925781 612.878906 422.257812 612.878906 414.476562 620.65625 L 321.804688 713.292969 C 314.023438 721.070312 314.023438 733.734375 321.804688 741.511719 C 325.695312 745.398438 330.785156 747.394531 335.871094 747.394531 C 340.957031 747.394531 346.144531 745.398438 350.035156 741.511719 Z M 468.34375 741.511719 L 561.015625 648.875 C 568.796875 641.097656 568.796875 628.433594 561.015625 620.65625 C 553.234375 612.878906 540.566406 612.878906 532.785156 620.65625 L 440.113281 713.292969 C 432.332031 721.070312 432.332031 733.734375 440.113281 741.511719 C 444.003906 745.398438 449.089844 747.394531 454.179688 747.394531 C 459.265625 747.394531 464.453125 745.398438 468.34375 741.511719 Z M 468.34375 741.511719 " fill-opacity="1" fill-rule="nonzero"/></svg>