<svg xmlns="http://www.w3.org/2000/svg" xmlns:xlink="http://www.w3.org/1999/xlink" width="1080" zoomAndPan="magnify" viewBox="0 0 810 809.999993" height="1080" preserveAspectRatio="xMidYMid meet" version="1.0"><defs><clipPath id="4e7a1b2219"><path d="M 136 329 L 691 329 L 691 681.582031 L 136 681.582031 Z M 136 329 " clip-rule="nonzero"/></clipPath><clipPath id="5cca0db21b"><path d="M 359 128.082031 L 810 128.082031 L 810 495 L 359 495 Z M 359 128.082031 " clip-rule="nonzero"/></clipPath></defs><g clip-path="url(#4e7a1b2219)"><path fill="#84daf2" d="M 690.96875 611.824219 C 690.96875 650.128906 659.9375 681.140625 621.785156 681.140625 L 220.566406 681.140625 C 184.171875 681.140625 153.226562 657.859375 141.625 625.441406 C 138.546875 616.65625 136.789062 607.253906 136.789062 597.503906 C 136.789062 551.203125 174.328125 513.773438 220.566406 513.773438 L 258.808594 513.773438 L 258.808594 472.65625 C 258.808594 401.140625 311.375 341.925781 380.035156 331.46875 C 387.15625 330.417969 394.273438 329.800781 401.746094 329.800781 C 415.988281 329.800781 429.789062 331.910156 442.714844 335.777344 C 495.898438 351.679688 535.984375 397.714844 543.367188 454.03125 C 568.597656 457.371094 589.960938 473.007812 601.125 494.796875 C 606.488281 505.164062 609.476562 516.9375 609.476562 529.324219 C 609.476562 533.894531 608.949219 538.285156 608.246094 542.589844 L 621.785156 542.589844 C 659.9375 542.589844 690.96875 573.605469 690.96875 611.824219 Z M 690.96875 611.824219 " fill-opacity="1" fill-rule="nonzero"/></g><path fill="#35c6f0" d="M 380.035156 331.46875 C 311.464844 341.925781 258.808594 401.140625 258.808594 472.65625 L 258.808594 513.773438 L 220.566406 513.773438 C 174.328125 513.773438 136.789062 551.289062 136.789062 597.503906 C 136.789062 607.34375 138.460938 616.742188 141.625 625.441406 L 84.394531 625.441406 C 38.242188 625.441406 0.707031 587.925781 0.707031 541.710938 C 0.707031 495.585938 38.242188 458.074219 84.394531 458.074219 L 122.722656 458.074219 L 122.722656 416.957031 C 122.722656 338.058594 186.722656 274.101562 265.664062 274.101562 C 312.429688 274.101562 354.011719 296.679688 380.035156 331.46875 Z M 380.035156 331.46875 " fill-opacity="1" fill-rule="nonzero"/><g clip-path="url(#5cca0db21b)"><path fill="#ffd900" d="M 667.847656 388.136719 C 667.847656 434.964844 640.683594 475.554688 601.125 494.796875 C 589.960938 473.007812 568.597656 457.371094 543.371094 454.03125 C 535.984375 397.714844 495.898438 351.679688 442.714844 335.777344 C 461.964844 296.503906 502.402344 269.53125 549.171875 269.53125 C 614.75 269.53125 667.847656 322.597656 667.847656 388.136719 Z M 809.558594 388.136719 C 809.558594 378.472656 801.644531 370.566406 791.976562 370.566406 L 738.351562 370.566406 C 728.683594 370.566406 720.769531 378.472656 720.769531 388.136719 C 720.769531 397.804688 728.683594 405.710938 738.351562 405.710938 L 791.976562 405.710938 C 801.644531 405.710938 809.558594 397.804688 809.558594 388.136719 Z M 695.363281 266.808594 L 733.253906 228.941406 C 740.109375 222.089844 740.109375 210.929688 733.253906 204.078125 C 726.394531 197.226562 715.230469 197.226562 708.375 204.078125 L 670.484375 241.945312 C 663.628906 248.796875 663.628906 259.953125 670.484375 266.808594 C 673.914062 270.234375 678.398438 271.992188 682.882812 271.992188 C 687.363281 271.992188 691.9375 270.234375 695.363281 266.808594 Z M 566.753906 199.070312 L 566.753906 145.476562 C 566.753906 135.8125 558.839844 127.90625 549.171875 127.90625 C 539.5 127.90625 531.589844 135.8125 531.589844 145.476562 L 531.589844 199.070312 C 531.589844 208.734375 539.5 216.640625 549.171875 216.640625 C 558.839844 216.640625 566.753906 208.734375 566.753906 199.070312 Z M 427.855469 266.808594 C 434.714844 259.953125 434.714844 248.796875 427.855469 241.945312 L 389.96875 204.078125 C 383.109375 197.226562 371.945312 197.226562 365.089844 204.078125 C 358.230469 210.929688 358.230469 222.089844 365.089844 228.941406 L 402.976562 266.808594 C 406.40625 270.234375 410.890625 271.992188 415.375 271.992188 C 419.855469 271.992188 424.429688 270.234375 427.855469 266.808594 Z M 427.855469 266.808594 " fill-opacity="1" fill-rule="nonzero"/></g></svg>