<svg xmlns="http://www.w3.org/2000/svg" xmlns:xlink="http://www.w3.org/1999/xlink" width="1080" zoomAndPan="magnify" viewBox="0 0 810 809.999993" height="1080" preserveAspectRatio="xMidYMid meet" version="1.0"><defs><clipPath id="ee1908e2e9"><path d="M 424 88.085938 L 809 88.085938 L 809 506 L 424 506 Z M 424 88.085938 " clip-rule="nonzero"/></clipPath><clipPath id="e72481a826"><path d="M 182 605 L 529 605 L 529 721.835938 L 182 721.835938 Z M 182 605 " clip-rule="nonzero"/></clipPath></defs><g clip-path="url(#ee1908e2e9)"><path fill="#ffd900" d="M 661.597656 370.863281 C 661.597656 422.667969 632.492188 467.722656 589.796875 490.601562 C 461.105469 548.28125 392.816406 434.679688 439.714844 266.203125 C 463.210938 246.832031 493.277344 235.171875 526.066406 235.171875 C 600.84375 235.171875 661.597656 295.917969 661.597656 370.863281 Z M 543.421875 167.066406 L 543.421875 105.792969 C 543.421875 96.152344 535.535156 88.261719 525.890625 88.261719 C 516.246094 88.261719 508.355469 96.152344 508.355469 105.792969 L 508.355469 167.066406 C 508.355469 176.707031 516.246094 184.597656 525.890625 184.597656 C 535.535156 184.597656 543.421875 176.796875 543.421875 167.066406 Z M 682.371094 239.117188 L 725.679688 195.816406 C 732.519531 188.980469 732.519531 177.847656 725.679688 171.007812 C 718.84375 164.171875 707.707031 164.171875 700.871094 171.007812 L 657.5625 214.3125 C 650.726562 221.148438 650.726562 232.28125 657.5625 239.117188 C 660.984375 242.535156 665.453125 244.289062 669.925781 244.289062 C 674.394531 244.289062 678.953125 242.625 682.371094 239.117188 Z M 808.4375 370.863281 C 808.4375 361.222656 800.546875 353.332031 790.902344 353.332031 L 729.625 353.332031 C 719.980469 353.332031 712.089844 361.222656 712.089844 370.863281 C 712.089844 380.507812 719.980469 388.394531 729.625 388.394531 L 790.902344 388.394531 C 800.632812 388.394531 808.4375 380.507812 808.4375 370.863281 Z M 808.4375 370.863281 " fill-opacity="1" fill-rule="nonzero"/></g><path fill="#a6a6a6" d="M 599.179688 492.882812 L 582.523438 492.882812 C 583.488281 487.621094 584.101562 482.1875 584.101562 476.578125 C 584.101562 428.980469 548.597656 389.796875 502.660156 383.75 C 491.4375 297.410156 417.625 230.703125 328.207031 230.703125 C 230.984375 230.703125 152.171875 309.503906 152.171875 406.714844 L 152.171875 457.378906 L 105.007812 457.378906 C 48.113281 457.378906 1.914062 503.574219 1.914062 560.464844 C 1.914062 617.441406 48.113281 663.546875 105.007812 663.546875 L 599.179688 663.546875 C 646.34375 663.546875 684.566406 625.328125 684.566406 578.257812 C 684.566406 531.097656 646.34375 492.882812 599.179688 492.882812 Z M 599.179688 492.882812 " fill-opacity="1" fill-rule="nonzero"/><g clip-path="url(#e72481a826)"><path fill="#84daf2" d="M 199.6875 721.75 C 190.042969 721.75 182.15625 713.949219 182.15625 704.21875 L 182.066406 622.785156 C 182.066406 613.144531 189.871094 605.253906 199.601562 605.253906 C 209.242188 605.253906 217.132812 613.058594 217.132812 622.785156 L 217.222656 704.21875 C 217.222656 713.859375 209.332031 721.75 199.6875 721.75 Z M 303.660156 721.75 C 313.300781 721.75 321.191406 713.859375 321.191406 704.21875 L 321.105469 622.785156 C 321.105469 613.144531 313.214844 605.253906 303.570312 605.253906 C 293.929688 605.253906 286.039062 613.144531 286.039062 622.785156 L 286.125 704.21875 C 286.039062 713.949219 293.929688 721.75 303.660156 721.75 C 303.570312 721.75 303.660156 721.75 303.660156 721.75 Z M 407.542969 721.75 C 417.183594 721.75 425.074219 713.859375 425.074219 704.21875 L 424.988281 622.785156 C 424.988281 613.144531 417.097656 605.253906 407.453125 605.253906 C 397.8125 605.253906 389.921875 613.144531 389.921875 622.785156 L 390.007812 704.21875 C 390.007812 713.949219 397.898438 721.75 407.542969 721.75 Z M 510.988281 721.75 C 520.628906 721.75 528.519531 713.859375 528.519531 704.21875 L 528.433594 622.785156 C 528.433594 613.144531 520.542969 605.253906 510.898438 605.253906 C 501.257812 605.253906 493.367188 613.144531 493.367188 622.785156 L 493.453125 704.21875 C 493.453125 713.949219 501.257812 721.75 510.988281 721.75 Z M 510.988281 721.75 " fill-opacity="1" fill-rule="nonzero"/></g></svg>