<svg xmlns="http://www.w3.org/2000/svg" xmlns:xlink="http://www.w3.org/1999/xlink" width="1080" zoomAndPan="magnify" viewBox="0 0 810 809.999993" height="1080" preserveAspectRatio="xMidYMid meet" version="1.0"><defs><clipPath id="b77effd462"><path d="M 160 231 L 810 231 L 810 643.558594 L 160 643.558594 Z M 160 231 " clip-rule="nonzero"/></clipPath><clipPath id="13fca91035"><path d="M 1 166.558594 L 446 166.558594 L 446 579 L 1 579 Z M 1 166.558594 " clip-rule="nonzero"/></clipPath></defs><g clip-path="url(#b77effd462)"><path fill="#84daf2" d="M 809.316406 562.441406 C 809.316406 607.265625 772.945312 643.648438 728.21875 643.648438 L 258.433594 643.648438 C 215.773438 643.648438 179.492188 616.429688 166.019531 578.339844 C 162.335938 568.097656 160.363281 557.050781 160.363281 545.550781 C 160.363281 491.382812 204.277344 447.457031 258.433594 447.457031 L 303.15625 447.457031 L 303.15625 399.308594 C 303.15625 315.496094 364.765625 246.058594 445.054688 233.839844 C 453.40625 232.582031 461.847656 231.953125 470.46875 231.953125 C 555.429688 231.953125 625.660156 295.375 636.347656 377.480469 C 679.992188 383.226562 713.761719 420.597656 713.761719 465.78125 C 713.761719 471.082031 713.222656 476.292969 712.324219 481.414062 L 728.128906 481.414062 C 772.945312 481.414062 809.316406 517.703125 809.316406 562.441406 Z M 809.316406 562.441406 " fill-opacity="1" fill-rule="nonzero"/></g><g clip-path="url(#13fca91035)"><path fill="#35c6f0" d="M 445.054688 233.839844 C 364.675781 246.058594 303.15625 315.496094 303.15625 399.308594 L 303.15625 447.457031 L 258.433594 447.457031 C 204.277344 447.457031 160.363281 491.382812 160.363281 545.550781 C 160.363281 557.050781 162.335938 568.097656 166.019531 578.339844 L 99.023438 578.339844 C 44.957031 578.339844 1.042969 534.414062 1.042969 480.246094 C 1.042969 426.167969 44.957031 382.238281 99.023438 382.238281 L 143.835938 382.238281 L 143.835938 334.089844 C 143.835938 241.65625 218.738281 166.738281 311.148438 166.738281 C 366.023438 166.738281 414.699219 193.148438 445.054688 233.839844 Z M 445.054688 233.839844 " fill-opacity="1" fill-rule="nonzero"/></g></svg>