<svg xmlns="http://www.w3.org/2000/svg" xmlns:xlink="http://www.w3.org/1999/xlink" width="1080" zoomAndPan="magnify" viewBox="0 0 810 809.999993" height="1080" preserveAspectRatio="xMidYMid meet" version="1.0"><defs><clipPath id="748744db09"><path d="M 0 40.5 L 810 40.5 L 810 769.5 L 0 769.5 Z M 0 40.5 " clip-rule="nonzero"/></clipPath></defs><g clip-path="url(#748744db09)"><path fill="#ffd900" d="M 158.433594 89.757812 L 199.0625 187.109375 L 302.257812 208.863281 L 222.164062 277.539062 L 233.3125 382.4375 L 143.242188 327.515625 L 46.972656 370.574219 L 71.421875 267.917969 L 0.679688 189.714844 L 105.847656 181.175781 Z M 420.28125 335.605469 L 316.191406 318.527344 L 365.988281 411.5625 L 317.628906 505.316406 L 421.449219 486.710938 L 495.699219 561.675781 L 510.082031 457.136719 L 604.285156 409.675781 L 509.269531 363.832031 L 493.269531 259.558594 Z M 632.328125 127.511719 L 539.921875 146.210938 L 611.027344 208.234375 L 600.238281 301.898438 L 681.140625 253.445312 L 766.894531 292.640625 L 745.859375 200.683594 L 809.679688 131.199219 L 715.746094 122.839844 L 669.363281 40.679688 Z M 593.585938 592.867188 L 509.628906 635.835938 L 594.84375 676.285156 L 609.765625 769.410156 L 674.578125 700.914062 L 767.703125 715.476562 L 722.578125 632.6875 L 765.183594 548.554688 L 672.507812 565.902344 L 605.722656 499.382812 Z M 239.246094 571.292969 L 201.941406 484.640625 L 155.917969 566.890625 L 61.984375 575.609375 L 125.984375 644.824219 L 105.21875 736.78125 L 190.882812 697.320312 L 271.964844 745.5 L 260.816406 651.835938 L 331.652344 589.632812 Z M 239.246094 571.292969 " fill-opacity="1" fill-rule="nonzero"/></g></svg>