<svg xmlns="http://www.w3.org/2000/svg" xmlns:xlink="http://www.w3.org/1999/xlink" width="1080" zoomAndPan="magnify" viewBox="0 0 810 809.999993" height="1080" preserveAspectRatio="xMidYMid meet" version="1.0"><defs><clipPath id="f807fca031"><path d="M 26.324219 133 L 667 133 L 667 540 L 26.324219 540 Z M 26.324219 133 " clip-rule="nonzero"/></clipPath></defs><path fill="#ffd900" d="M 434.207031 169.066406 C 456.527344 149.675781 485.574219 138.042969 517.464844 138.042969 C 587.621094 138.042969 644.503906 194.917969 644.503906 265.058594 C 644.503906 312.539062 618.476562 353.902344 579.949219 375.703125 L 498.589844 426.113281 L 434.207031 169.066406 M 534.613281 74.277344 L 534.613281 16.890625 C 534.613281 7.410156 526.859375 -0.34375 517.378906 -0.34375 C 507.898438 -0.34375 500.140625 7.410156 500.140625 16.890625 L 500.140625 74.277344 C 500.140625 83.757812 507.898438 91.511719 517.378906 91.511719 C 526.859375 91.511719 534.613281 83.757812 534.613281 74.277344 Z M 664.5 142.351562 L 705.09375 101.765625 C 711.816406 95.046875 711.816406 84.101562 705.09375 77.382812 C 698.371094 70.660156 687.425781 70.660156 680.703125 77.382812 L 640.109375 117.96875 C 633.386719 124.6875 633.386719 135.632812 640.109375 142.351562 C 643.46875 145.714844 647.867188 147.4375 652.261719 147.4375 C 656.65625 147.4375 661.136719 145.714844 664.5 142.351562 Z M 782.835938 265.058594 C 782.835938 255.582031 775.078125 247.824219 765.597656 247.824219 L 708.195312 247.824219 C 698.714844 247.824219 690.960938 255.582031 690.960938 265.058594 C 690.960938 274.539062 698.714844 282.292969 708.195312 282.292969 L 765.597656 282.292969 C 775.078125 282.292969 782.835938 274.539062 782.835938 265.058594 Z M 782.835938 265.058594 " fill-opacity="1" fill-rule="nonzero"/><g clip-path="url(#f807fca031)"><path fill="#a6a6a6" d="M 123.328125 539.082031 C 70.0625 539.082031 26.796875 495.910156 26.796875 442.570312 C 26.796875 389.316406 70.0625 346.058594 123.328125 346.058594 L 167.457031 346.058594 L 167.457031 298.578125 C 167.457031 207.585938 241.234375 133.734375 332.332031 133.734375 C 416.105469 133.734375 485.144531 196.210938 495.660156 277.039062 C 538.664062 282.722656 571.933594 319.347656 571.933594 363.984375 C 571.933594 369.238281 571.332031 374.324219 570.46875 379.234375 L 586.070312 379.234375 C 630.195312 379.234375 666.050781 414.996094 666.050781 459.199219 C 666.050781 503.234375 630.28125 539.082031 586.070312 539.082031 Z M 123.328125 539.082031 " fill-opacity="1" fill-rule="nonzero"/></g><path fill="#84daf2" d="M 168.578125 592.335938 C 164.179688 592.335938 159.785156 590.609375 156.425781 587.25 C 149.703125 580.527344 149.703125 569.585938 156.425781 562.863281 L 207.707031 511.59375 C 214.429688 504.871094 225.375 504.871094 232.097656 511.59375 C 238.820312 518.3125 238.820312 529.257812 232.097656 535.980469 L 180.816406 587.25 C 177.367188 590.609375 172.972656 592.335938 168.578125 592.335938 Z M 281.742188 587.25 L 333.023438 535.980469 C 339.746094 529.257812 339.746094 518.3125 333.023438 511.59375 C 326.300781 504.871094 315.355469 504.871094 308.632812 511.59375 L 257.347656 562.863281 C 250.628906 569.585938 250.628906 580.527344 257.347656 587.25 C 260.710938 590.609375 265.105469 592.335938 269.503906 592.335938 C 273.898438 592.335938 278.378906 590.609375 281.742188 587.25 Z M 382.667969 587.25 L 433.949219 535.980469 C 440.671875 529.257812 440.671875 518.3125 433.949219 511.59375 C 427.226562 504.871094 416.28125 504.871094 409.558594 511.59375 L 358.273438 562.863281 C 351.550781 569.585938 351.550781 580.527344 358.273438 587.25 C 361.636719 590.609375 366.03125 592.335938 370.425781 592.335938 C 374.824219 592.335938 379.304688 590.609375 382.667969 587.25 Z M 483.59375 587.25 L 534.875 535.980469 C 541.597656 529.257812 541.597656 518.3125 534.875 511.59375 C 528.152344 504.871094 517.203125 504.871094 510.484375 511.59375 L 459.199219 562.863281 C 452.476562 569.585938 452.476562 580.527344 459.199219 587.25 C 462.5625 590.609375 466.957031 592.335938 471.351562 592.335938 C 475.75 592.335938 480.230469 590.609375 483.59375 587.25 Z M 180.730469 695.996094 L 232.011719 644.726562 C 238.734375 638.003906 238.734375 627.0625 232.011719 620.339844 C 225.289062 613.617188 214.34375 613.617188 207.621094 620.339844 L 156.335938 671.609375 C 149.613281 678.332031 149.613281 689.277344 156.335938 695.996094 C 159.699219 699.359375 164.09375 701.082031 168.488281 701.082031 C 172.886719 701.082031 177.367188 699.359375 180.730469 695.996094 Z M 281.742188 695.996094 L 333.023438 644.726562 C 339.746094 638.003906 339.746094 627.0625 333.023438 620.339844 C 326.300781 613.617188 315.355469 613.617188 308.632812 620.339844 L 257.347656 671.609375 C 250.628906 678.332031 250.628906 689.277344 257.347656 695.996094 C 260.710938 699.359375 265.105469 701.082031 269.503906 701.082031 C 273.898438 701.082031 278.378906 699.359375 281.742188 695.996094 Z M 382.667969 695.996094 L 433.949219 644.726562 C 440.671875 638.003906 440.671875 627.0625 433.949219 620.339844 C 427.226562 613.617188 416.28125 613.617188 409.558594 620.339844 L 358.273438 671.609375 C 351.550781 678.332031 351.550781 689.277344 358.273438 695.996094 C 361.636719 699.359375 366.03125 701.082031 370.425781 701.082031 C 374.824219 701.082031 379.304688 699.359375 382.667969 695.996094 Z M 483.59375 695.996094 L 534.875 644.726562 C 541.597656 638.003906 541.597656 627.0625 534.875 620.339844 C 528.152344 613.617188 517.203125 613.617188 510.484375 620.339844 L 459.199219 671.609375 C 452.476562 678.332031 452.476562 689.277344 459.199219 695.996094 C 462.5625 699.359375 466.957031 701.082031 471.351562 701.082031 C 475.75 701.082031 480.230469 699.359375 483.59375 695.996094 Z M 180.730469 804.65625 L 232.011719 753.386719 C 238.734375 746.664062 238.734375 735.722656 232.011719 729 C 225.289062 722.277344 214.34375 722.277344 207.621094 729 L 156.335938 780.269531 C 149.613281 786.992188 149.613281 797.9375 156.335938 804.65625 C 159.699219 808.019531 164.09375 809.742188 168.488281 809.742188 C 172.886719 809.742188 177.367188 808.019531 180.730469 804.65625 Z M 281.742188 804.65625 L 333.023438 753.386719 C 339.746094 746.664062 339.746094 735.722656 333.023438 729 C 326.300781 722.277344 315.355469 722.277344 308.632812 729 L 257.347656 780.269531 C 250.628906 786.992188 250.628906 797.9375 257.347656 804.65625 C 260.710938 808.019531 265.105469 809.742188 269.503906 809.742188 C 273.898438 809.742188 278.378906 808.019531 281.742188 804.65625 Z M 382.667969 804.65625 L 433.949219 753.386719 C 440.671875 746.664062 440.671875 735.722656 433.949219 729 C 427.226562 722.277344 416.28125 722.277344 409.558594 729 L 358.273438 780.269531 C 351.550781 786.992188 351.550781 797.9375 358.273438 804.65625 C 361.636719 808.019531 366.03125 809.742188 370.425781 809.742188 C 374.824219 809.742188 379.304688 808.019531 382.667969 804.65625 Z M 483.59375 804.65625 L 534.875 753.386719 C 541.597656 746.664062 541.597656 735.722656 534.875 729 C 528.152344 722.277344 517.203125 722.277344 510.484375 729 L 459.199219 780.269531 C 452.476562 786.992188 452.476562 797.9375 459.199219 804.65625 C 462.5625 808.019531 466.957031 809.742188 471.351562 809.742188 C 475.75 809.742188 480.230469 808.019531 483.59375 804.65625 Z M 483.59375 804.65625 " fill-opacity="1" fill-rule="nonzero"/></svg>