<svg xmlns="http://www.w3.org/2000/svg" xmlns:xlink="http://www.w3.org/1999/xlink" width="1080" zoomAndPan="magnify" viewBox="0 0 810 809.999993" height="1080" preserveAspectRatio="xMidYMid meet" version="1.0"><defs><clipPath id="25b58a515b"><path d="M 3 117.449219 L 808 117.449219 L 808 627 L 3 627 Z M 3 117.449219 " clip-rule="nonzero"/></clipPath><clipPath id="54935e4989"><path d="M 298 560 L 545 560 L 545 692.699219 L 298 692.699219 Z M 298 560 " clip-rule="nonzero"/></clipPath></defs><g clip-path="url(#25b58a515b)"><path fill="#a6a6a6" d="M 246.9375 626.777344 L 124.683594 626.777344 C 57.707031 626.777344 3.324219 572.46875 3.324219 505.386719 C 3.324219 438.394531 57.707031 383.996094 124.683594 383.996094 L 180.230469 383.996094 L 180.230469 324.324219 C 180.230469 209.8125 273.011719 117.003906 387.496094 117.003906 C 492.78125 117.003906 579.671875 195.609375 592.890625 297.261719 C 647.003906 304.40625 688.796875 350.496094 688.796875 406.59375 C 688.796875 413.203125 688.082031 419.636719 686.921875 425.796875 L 706.570312 425.796875 C 762.113281 425.796875 807.121094 470.816406 807.121094 526.378906 C 807.121094 581.847656 762.113281 626.867188 706.570312 626.867188 L 246.9375 626.867188 Z M 246.9375 626.777344 " fill-opacity="1" fill-rule="nonzero"/></g><g clip-path="url(#54935e4989)"><path fill="#84daf2" d="M 316.679688 692.523438 C 312.128906 692.523438 307.574219 690.734375 304.089844 687.25 C 297.125 680.285156 297.125 668.941406 304.089844 661.972656 L 399.910156 566.128906 C 406.875 559.160156 418.214844 559.160156 425.183594 566.128906 C 432.148438 573.09375 432.148438 584.4375 425.183594 591.40625 L 329.273438 687.339844 C 325.789062 690.824219 321.234375 692.523438 316.679688 692.523438 Z M 443.308594 687.339844 L 539.128906 591.496094 C 546.09375 584.527344 546.09375 573.183594 539.128906 566.214844 C 532.164062 559.25 520.824219 559.25 513.859375 566.214844 L 418.039062 662.0625 C 411.074219 669.027344 411.074219 680.375 418.039062 687.339844 C 421.519531 690.824219 426.074219 692.609375 430.628906 692.609375 C 435.183594 692.609375 439.828125 690.824219 443.308594 687.339844 Z M 443.308594 687.339844 " fill-opacity="1" fill-rule="nonzero"/></g></svg>