<svg xmlns="http://www.w3.org/2000/svg" xmlns:xlink="http://www.w3.org/1999/xlink" width="1080" zoomAndPan="magnify" viewBox="0 0 810 809.999993" height="1080" preserveAspectRatio="xMidYMid meet" version="1.0"><path fill="#a6a6a6" d="M 708.839844 411.417969 L 689.039062 411.417969 C 690.210938 405.210938 690.929688 398.734375 690.929688 392.074219 C 690.929688 335.582031 648.808594 289.164062 594.269531 281.96875 C 580.949219 179.597656 493.378906 100.4375 387.269531 100.4375 C 271.890625 100.4375 178.378906 193.902344 178.378906 309.226562 L 178.378906 369.316406 L 122.398438 369.316406 C 54.898438 369.316406 0.0898438 424.101562 0.0898438 491.570312 C 0.0898438 559.125 54.898438 613.820312 122.398438 613.820312 L 708.75 613.820312 C 764.730469 613.820312 810.089844 568.480469 810.089844 512.617188 C 810.179688 456.753906 764.820312 411.417969 708.839844 411.417969 Z M 708.839844 411.417969 " fill-opacity="1" fill-rule="nonzero"/><path fill="#ffffff" d="M 482.851562 595.828125 L 448.648438 595.828125 L 472.859375 571.628906 C 479.878906 564.613281 479.878906 553.1875 472.859375 546.171875 C 465.839844 539.15625 454.410156 539.15625 447.390625 546.171875 L 423.179688 570.371094 L 423.179688 536.1875 C 423.179688 526.292969 415.078125 518.195312 405.179688 518.195312 C 395.28125 518.195312 387.179688 526.292969 387.179688 536.1875 L 387.179688 570.371094 L 362.96875 546.171875 C 355.949219 539.15625 344.519531 539.15625 337.5 546.171875 C 330.480469 553.1875 330.480469 564.613281 337.5 571.628906 L 361.710938 595.828125 L 327.511719 595.828125 C 317.609375 595.828125 309.511719 603.925781 309.511719 613.820312 C 309.511719 623.714844 317.609375 631.8125 327.511719 631.8125 L 361.710938 631.8125 L 337.5 656.007812 C 330.480469 663.027344 330.480469 674.449219 337.5 681.46875 C 341.011719 684.976562 345.601562 686.773438 350.191406 686.773438 C 354.78125 686.773438 359.371094 684.976562 362.878906 681.46875 L 387.089844 657.269531 L 387.089844 691.453125 C 387.089844 701.347656 395.191406 709.445312 405.089844 709.445312 C 414.988281 709.445312 423.089844 701.347656 423.089844 691.453125 L 423.089844 657.269531 L 447.300781 681.46875 C 450.808594 684.976562 455.398438 686.773438 459.988281 686.773438 C 464.578125 686.773438 469.171875 684.976562 472.679688 681.46875 C 479.699219 674.449219 479.699219 663.027344 472.679688 656.007812 L 448.46875 631.8125 L 482.671875 631.8125 C 492.570312 631.8125 500.671875 623.714844 500.671875 613.820312 C 500.671875 603.925781 492.75 595.828125 482.851562 595.828125 Z M 482.851562 595.828125 " fill-opacity="1" fill-rule="nonzero"/></svg>